<svg xmlns="http://www.w3.org/2000/svg" viewBox="0 0 500 500" width="500" height="500" class="illustration"><title>21. Gear</title><g id="Layer_12" data-name="Layer 12"><path d="M335.85,260.17c-2.59,34.5-31.55,65.2-65.84,69.79-12.32,1.65-25.93-.18-35-8.64a74.71,74.71,0,0,0,52.37-19.41c17.26-15.85,26.08-39.17,29.16-62.4,1.35-10.11,1.2-19.91-3.41-29.19-2.75-5.53-8.28-10.62-8.87-16.85C325.78,205.18,337.61,236.79,335.85,260.17Z" fill="#3fe2fd"></path><path d="M275.17,70.84c2.25,7.88-1.13,39.41,5.63,48.42s43.92-6.75,43.92-6.75l32.66-18,33.79,45.05s-36.66,46.22-24.78,51.8,24.78,10.14,24.78,10.14l40.54,15.77L425,274.68s-50.06,5.89-47.31,27,14.65,39.42,14.65,39.42l4.5,16.9-40.54,38.29-51.81-15.77L355.13,411l58.56-51.81s-34.09-37.35-27-52.93,58.57-23.65,58.57-23.65l-1.13-72.08s-65.32-2.25-61.94-28.16l28.16-43.92-7.89-15.77L357.38,85.48s-43.92,30.4-52.93,25.9S285.3,60.7,285.3,60.7l-5.63-9S272.91,63,275.17,70.84Z" fill="#3fe2fd"></path></g><g id="Layer_11" data-name="Layer 11"><path d="M252.05,187.44a62.58,62.58,0,1,0-4.11,125.09c1.21,0,2.43,0,3.64,0a62.57,62.57,0,0,0,.47-125.09Z" fill="none"></path><path d="M433.19,216.21,393.7,209.3a20.41,20.41,0,0,1-15.43-12.37l-.12-.31a20.42,20.42,0,0,1,2.24-19.54l23-32.78a6.51,6.51,0,0,0-.72-8.38L364.05,97.29a6.53,6.53,0,0,0-8.38-.73l-32.8,23a20.4,20.4,0,0,1-19.72,2.14l-.16-.07a20.41,20.41,0,0,1-12.33-15.39l-6.91-39.49a6.51,6.51,0,0,0-6.42-5.37H222.66a6.51,6.51,0,0,0-6.43,5.41l-6.9,39.48A20.48,20.48,0,0,1,197,121.71a6.34,6.34,0,0,1-.93.31,20.4,20.4,0,0,1-18.92-2.47l-32.79-23a6.52,6.52,0,0,0-8.36.73L97.31,135.94a6.51,6.51,0,0,0-.73,8.37l23,32.81a20.4,20.4,0,0,1,2.47,18.9,7.24,7.24,0,0,1-.31.93,20.4,20.4,0,0,1-15.44,12.37l-39.47,6.91a6.52,6.52,0,0,0-5.43,6.43v54.66a6.53,6.53,0,0,0,5.41,6.44l39.48,6.9A20.44,20.44,0,0,1,121.73,303a7.24,7.24,0,0,1,.31.93,20.4,20.4,0,0,1-2.48,18.92l-23,32.77a6.54,6.54,0,0,0,.74,8.38L136,402.68a6.51,6.51,0,0,0,8.37.72l32.81-23a20.4,20.4,0,0,1,19.55-2.21l.29.11a20.41,20.41,0,0,1,12.37,15.42l6.91,39.49a6.51,6.51,0,0,0,6.43,5.41h54.68a6.51,6.51,0,0,0,6.43-5.41l6.9-39.48a20.44,20.44,0,0,1,12.38-15.43l.29-.11a20.39,20.39,0,0,1,19.57,2.23l32.78,23a6.51,6.51,0,0,0,8.38-.71L402.69,364a6.54,6.54,0,0,0,.73-8.39l-23-32.8a20.4,20.4,0,0,1-2.23-19.52l.12-.31a20.44,20.44,0,0,1,15.43-12.38l39.49-6.9a6.53,6.53,0,0,0,5.38-6.42V222.65A6.53,6.53,0,0,0,433.19,216.21ZM252,326.52c-.74,0-1.48,0-2.23,0s-1.49,0-2.23,0h0a76.84,76.84,0,1,1,4.49,0Z" fill="none"></path><path d="M252.5,173.44a76.58,76.58,0,0,0-5,153.08h0c.74,0,1.48,0,2.23,0s1.49,0,2.23,0a76.57,76.57,0,0,0,.52-153.08Zm-.92,139.09c-1.21,0-2.43,0-3.64,0a62.81,62.81,0,1,1,3.64,0Z" fill="#251ac7"></path><path d="M435.6,202.42l-39.49-6.91a6.46,6.46,0,0,1-4.84-3.8l-.12-.3a6.48,6.48,0,0,1,.69-6.28l23-32.78A20.47,20.47,0,0,0,412.56,126L374,87.4a20.49,20.49,0,0,0-26.32-2.3l-32.81,23a6.44,6.44,0,0,1-6.19.72l-.14-.06-.11,0a6.5,6.5,0,0,1-3.93-4.9l-6.91-39.5a20.51,20.51,0,0,0-20.2-16.94H222.66a20.5,20.5,0,0,0-20.23,17l-6.89,39.47a6.52,6.52,0,0,1-3.46,4.69c-.22.07-.44.15-.65.24a6.48,6.48,0,0,1-6.28-.7l-32.81-23a20.49,20.49,0,0,0-26.29,2.31L87.41,126a20.49,20.49,0,0,0-2.29,26.32l23,32.82a6.48,6.48,0,0,1,.68,6.27,5,5,0,0,0-.23.65,6.49,6.49,0,0,1-4.69,3.44l-39.46,6.91a20.51,20.51,0,0,0-17,20.21v54.68a20.51,20.51,0,0,0,17,20.22l39.48,6.9a6.51,6.51,0,0,1,4.69,3.45,5.75,5.75,0,0,0,.23.66,6.48,6.48,0,0,1-.69,6.28l-23,32.79a20.53,20.53,0,0,0,2.31,26.3l38.64,38.65a20.51,20.51,0,0,0,26.32,2.28l32.82-23a6.45,6.45,0,0,1,6.25-.69l.29.11a6.5,6.5,0,0,1,3.82,4.86l6.9,39.48a20.5,20.5,0,0,0,20.23,17h54.68a20.5,20.5,0,0,0,20.23-17l6.89-39.47a6.53,6.53,0,0,1,3.83-4.87l.29-.11a6.47,6.47,0,0,1,6.27.7l32.79,23A20.49,20.49,0,0,0,374,412.57l38.6-38.63a20.48,20.48,0,0,0,2.28-26.33l-23-32.8a6.49,6.49,0,0,1-.68-6.27l.12-.3a6.49,6.49,0,0,1,4.84-3.81l39.5-6.9a20.53,20.53,0,0,0,17-20.19V222.65A20.48,20.48,0,0,0,435.6,202.42Zm3,74.9a6.53,6.53,0,0,1-5.38,6.42l-39.49,6.9A20.44,20.44,0,0,0,378.3,303l-.12.31a20.4,20.4,0,0,0,2.23,19.52l23,32.8a6.54,6.54,0,0,1-.73,8.39l-38.6,38.64a6.51,6.51,0,0,1-8.38.71l-32.78-23a20.39,20.39,0,0,0-19.57-2.23l-.29.11a20.44,20.44,0,0,0-12.38,15.43l-6.9,39.48a6.51,6.51,0,0,1-6.43,5.41H222.68a6.51,6.51,0,0,1-6.43-5.41l-6.91-39.49A20.41,20.41,0,0,0,197,378.29l-.29-.11a20.4,20.4,0,0,0-19.55,2.21l-32.81,23a6.51,6.51,0,0,1-8.37-.72L97.31,364a6.54,6.54,0,0,1-.74-8.38l23-32.77A20.4,20.4,0,0,0,122,304a7.24,7.24,0,0,0-.31-.93,20.44,20.44,0,0,0-15.44-12.38l-39.48-6.9a6.53,6.53,0,0,1-5.41-6.44V222.66a6.52,6.52,0,0,1,5.43-6.43l39.47-6.91A20.4,20.4,0,0,0,121.74,197a7.24,7.24,0,0,0,.31-.93,20.4,20.4,0,0,0-2.47-18.9l-23-32.81a6.51,6.51,0,0,1,.73-8.37L136,97.29a6.52,6.52,0,0,1,8.36-.73l32.79,23A20.4,20.4,0,0,0,196,122a6.34,6.34,0,0,0,.93-.31,20.48,20.48,0,0,0,12.38-15.43l6.9-39.48a6.51,6.51,0,0,1,6.43-5.41h54.67a6.51,6.51,0,0,1,6.42,5.37l6.91,39.49A20.41,20.41,0,0,0,303,121.64l.16.07a20.4,20.4,0,0,0,19.72-2.14l32.8-23a6.53,6.53,0,0,1,8.38.73l38.61,38.63a6.51,6.51,0,0,1,.72,8.38l-23,32.78a20.42,20.42,0,0,0-2.24,19.54l.12.31A20.41,20.41,0,0,0,393.7,209.3l39.49,6.91a6.53,6.53,0,0,1,5.41,6.44Z" fill="#251ac7"></path></g></svg>